<?xml version="1.0" encoding="UTF-8"?>
<svg xmlns="http://www.w3.org/2000/svg" width="274" height="91" viewBox="0 0 274 91" fill="none">
  <g clip-path="url(#clip0_1821_747)">
    <path d="M105.883 40.9644H106.117C107.705 39.2351 114.525 32.2752 115.88 30.6885C117.188 29.1459 118.215 27.9792 118.215 27.1846C118.215 26.6713 118.028 26.3433 117.561 26.2499C117.141 26.1566 116.953 26.0633 116.953 25.7833C116.953 25.4553 117.188 25.3633 117.701 25.3633C118.681 25.3633 121.251 25.5033 122.513 25.5033C123.96 25.5033 126.531 25.3633 127.979 25.3633C128.444 25.3633 128.772 25.4553 128.772 25.7833C128.772 26.1099 128.539 26.2033 128.071 26.2033C127.417 26.2033 126.249 26.3899 125.363 26.7166C123.913 27.2766 122.325 28.2592 120.317 30.2205C118.869 31.6219 111.816 38.6284 110.227 40.3111C111.909 42.5057 121.064 52.3616 122.887 54.0909C124.941 56.0522 127.044 58.1548 129.565 59.1348C130.968 59.6948 131.902 59.8361 132.462 59.8361C132.789 59.8361 133.069 59.9295 133.069 60.2094C133.069 60.5374 132.836 60.6761 131.948 60.6761H127.884C126.484 60.6761 125.643 60.6761 124.661 60.5828C122.14 60.3494 120.877 59.3215 118.869 57.5468C116.813 55.7255 107.612 44.935 106.631 43.5804L106.117 42.879H105.883V47.131C105.883 51.4282 105.883 55.1175 106.023 57.1255C106.117 58.4335 106.536 59.4628 107.705 59.6495C108.359 59.7428 109.385 59.8361 109.993 59.8361C110.368 59.8361 110.6 59.9761 110.6 60.2094C110.6 60.5374 110.227 60.6761 109.713 60.6761C107.097 60.6761 104.154 60.5374 102.987 60.5374C101.912 60.5374 98.9696 60.6761 97.1016 60.6761C96.4936 60.6761 96.167 60.5374 96.167 60.2094C96.167 59.9761 96.355 59.8361 96.915 59.8361C97.6149 59.8361 98.1749 59.7428 98.5963 59.6495C99.5296 59.4628 99.7629 58.4335 99.9509 57.0802C100.186 55.1175 100.186 51.4282 100.186 47.131V38.9084C100.186 31.8099 100.186 30.5005 100.091 29.0059C99.9977 27.4179 99.6243 26.6713 98.0829 26.3433C97.7083 26.2499 96.915 26.2033 96.2603 26.2033C95.747 26.2033 95.467 26.1099 95.467 25.7833C95.467 25.4553 95.7936 25.3633 96.4936 25.3633C98.9696 25.3633 101.912 25.5033 103.034 25.5033C104.154 25.5033 107.097 25.3633 108.687 25.3633C109.34 25.3633 109.667 25.4553 109.667 25.7833C109.667 26.1099 109.385 26.2033 109.012 26.2033C108.545 26.2033 108.265 26.2499 107.705 26.3433C106.444 26.5766 106.071 27.3713 105.976 29.0059C105.883 30.5005 105.883 31.8099 105.883 38.9084L105.883 40.9644Z" fill="black"></path>
    <path d="M138.859 38.9084C138.859 31.8099 138.859 30.5019 138.766 29.0059C138.673 27.4179 138.298 26.6699 136.757 26.3433C136.383 26.2499 135.589 26.2033 134.935 26.2033C134.422 26.2033 134.142 26.1099 134.142 25.7819C134.142 25.4553 134.467 25.3633 135.169 25.3633C137.645 25.3633 140.587 25.5033 141.567 25.5033C143.157 25.5033 146.706 25.3633 148.155 25.3633C151.098 25.3633 154.227 25.6433 156.75 27.3713C158.059 28.2592 159.926 30.6405 159.926 33.7698C159.926 37.2271 158.478 40.4044 153.76 44.2337C157.916 49.4656 161.14 53.6229 163.896 56.5188C166.514 59.2295 168.427 59.5548 169.128 59.6948C169.643 59.7895 170.062 59.8348 170.436 59.8348C170.809 59.8348 170.996 59.9761 170.996 60.2094C170.996 60.5828 170.67 60.6761 170.108 60.6761H165.671C163.056 60.6761 161.887 60.4428 160.674 59.7895C158.664 58.7148 156.89 56.5188 154.274 52.9229C152.404 50.3536 150.256 47.1763 149.648 46.4763C149.416 46.1963 149.135 46.1497 148.808 46.1497L144.745 46.0563C144.511 46.0563 144.371 46.1497 144.371 46.4296V47.0843C144.371 51.4282 144.371 55.1175 144.606 57.0788C144.745 58.4348 145.025 59.4615 146.426 59.6481C147.127 59.7428 148.155 59.8348 148.715 59.8348C149.088 59.8348 149.275 59.9761 149.275 60.2094C149.275 60.5361 148.947 60.6761 148.342 60.6761C145.633 60.6761 142.175 60.5361 141.474 60.5361C140.587 60.5361 137.645 60.6761 135.777 60.6761C135.169 60.6761 134.842 60.5361 134.842 60.2094C134.842 59.9761 135.029 59.8348 135.589 59.8348C136.29 59.8348 136.85 59.7428 137.271 59.6481C138.205 59.4615 138.438 58.4348 138.626 57.0788C138.859 55.1175 138.859 51.4282 138.859 47.1296V38.9084ZM144.371 42.599C144.371 43.1124 144.464 43.299 144.791 43.439C145.771 43.767 147.174 43.907 148.342 43.907C150.21 43.907 150.818 43.7204 151.658 43.1124C153.06 42.0857 154.414 39.9364 154.414 36.1058C154.414 29.4726 150.022 27.5579 147.267 27.5579C146.1 27.5579 145.258 27.6046 144.791 27.7459C144.464 27.8379 144.371 28.0246 144.371 28.3979L144.371 42.599Z" fill="black"></path>
    <path d="M204.113 57.5491C204.113 58.8104 204.066 58.9038 203.505 59.2304C200.47 60.8184 195.892 61.3331 192.248 61.3331C180.804 61.3331 170.668 55.9145 170.668 43.0227C170.668 35.5481 174.545 30.3162 178.796 27.7469C183.28 25.0376 187.437 24.7109 191.361 24.7109C194.585 24.7109 198.694 25.2709 199.627 25.4576C200.61 25.6443 202.243 25.9256 203.318 25.9723C203.878 26.0189 203.973 26.2056 203.973 26.5322C203.973 27.0469 203.646 28.3549 203.646 34.1935C203.646 34.9415 203.505 35.1748 203.131 35.1748C202.805 35.1748 202.711 34.9415 202.666 34.5668C202.525 33.4935 202.29 31.9988 201.077 30.6895C199.675 29.1949 195.938 27.0469 190.66 27.0469C188.09 27.0469 184.681 27.2336 181.41 29.9429C178.796 32.1375 177.113 35.6414 177.113 41.3867C177.113 51.4292 183.513 58.9504 193.369 58.9504C194.585 58.9504 196.22 58.9504 197.341 58.4358C198.04 58.1091 198.227 57.5025 198.227 56.7091V52.3172C198.227 49.9812 198.228 48.2066 198.181 46.8053C198.134 45.2173 197.714 44.4693 196.172 44.1427C195.797 44.0493 195.004 44.0027 194.35 44.0027C193.929 44.0027 193.649 43.9093 193.649 43.6293C193.649 43.256 193.977 43.1613 194.63 43.1613C197.058 43.1613 200.002 43.3013 201.403 43.3013C202.851 43.3013 205.327 43.1613 206.869 43.1613C207.477 43.1613 207.803 43.256 207.803 43.6293C207.803 43.9093 207.522 44.0027 207.195 44.0027C206.822 44.0027 206.495 44.0493 205.935 44.1427C204.674 44.3773 204.206 45.1706 204.161 46.8053C204.113 48.2066 204.113 50.0759 204.113 52.4119V57.5491Z" fill="black"></path>
    <path d="M211.577 60.5365V59.4699C212.41 59.4699 213.085 59.4085 213.599 59.2859C214.114 59.1632 214.511 58.9432 214.794 58.6245C215.075 58.3059 215.266 57.8832 215.363 57.3566C215.462 56.8299 215.511 56.1606 215.511 55.3526V41.7861C215.511 41.4688 215.493 41.0941 215.455 40.6648C215.419 40.2368 215.339 39.8248 215.217 39.4328C215.094 39.0408 214.898 38.7102 214.629 38.4395C214.359 38.1702 214.005 38.0355 213.563 38.0355C213.243 38.0355 212.919 38.0795 212.587 38.1648C212.258 38.2515 211.919 38.3542 211.577 38.4768L211.21 37.4848L218.892 34.3969H220.106V55.3526C220.106 56.1606 220.155 56.8299 220.254 57.3566C220.351 57.8832 220.542 58.3059 220.823 58.6245C221.106 58.9432 221.498 59.1632 221.999 59.2859C222.502 59.4085 223.17 59.4699 224.004 59.4699V60.5365H211.577ZM220.622 26.4917C220.622 27.277 220.351 27.9503 219.813 28.513C219.273 29.077 218.611 29.3596 217.827 29.3596C217.042 29.3596 216.375 29.0903 215.823 28.5503C215.271 28.0116 214.996 27.325 214.996 26.4917C214.996 25.7077 215.271 25.0517 215.823 24.525C216.375 23.9984 217.042 23.7344 217.827 23.7344C218.586 23.7344 219.243 24.0037 219.794 24.5437C220.346 25.0824 220.622 25.733 220.622 26.4917Z" fill="black"></path>
    <path d="M233.652 56.2411C229.075 52.2239 227.86 46.9919 227.86 42.4613C227.86 39.2854 228.84 33.7721 233.325 29.6615C236.688 26.5789 241.125 24.7109 248.086 24.7109C250.982 24.7109 252.71 24.8976 254.859 25.1776C256.634 25.4109 258.129 25.8323 259.53 25.9723C260.045 26.0189 260.232 26.2522 260.232 26.5322C260.232 26.9056 260.09 27.4669 259.998 29.1015C259.904 30.6429 259.95 33.2121 259.858 34.1468C259.81 34.8468 259.717 35.2215 259.297 35.2215C258.924 35.2215 258.829 34.8468 258.829 34.1935C258.782 32.7455 258.175 31.1108 257.009 29.8962C255.466 28.2616 251.822 27.0002 247.525 27.0002C243.462 27.0002 240.798 28.0269 238.744 29.8962C235.334 33.0255 234.446 37.4628 234.446 41.9934C234.446 53.1119 242.901 58.6238 249.161 58.6238C253.317 58.6238 255.839 58.1571 257.707 56.0065C258.503 55.1198 259.11 53.7652 259.297 52.9252C259.437 52.1772 259.53 51.9905 259.903 51.9905C260.231 51.9905 260.323 52.3172 260.323 52.6905C260.323 53.2519 259.763 57.3158 259.297 58.9038C259.063 59.6971 258.877 59.9318 258.082 60.2584C256.213 61.0064 252.665 61.3331 249.674 61.3331C243.274 61.3331 237.903 59.9318 233.652 56.2411Z" fill="black"></path>
    <path d="M100.628 71.8978C100.628 71.7911 100.708 71.7031 100.821 71.7031H101.536C101.641 71.7031 101.729 71.7911 101.729 71.8978V74.0871L103.773 71.7845C103.805 71.7445 103.853 71.7031 103.927 71.7031H104.737C104.891 71.7031 104.972 71.8725 104.867 71.9951L102.752 74.3778L105.021 77.0937C105.101 77.1977 105.037 77.3764 104.876 77.3764H103.992C103.911 77.3764 103.861 77.3444 103.847 77.3204L101.729 74.7111V77.183C101.729 77.2884 101.641 77.3764 101.536 77.3764H100.821C100.708 77.3764 100.628 77.2884 100.628 77.183L100.628 71.8978Z" fill="#1D1D1B"></path>
    <path d="M108.344 71.8578C108.344 71.7765 108.408 71.7031 108.497 71.7031H110.816C111.788 71.7031 112.583 72.4818 112.583 73.4458C112.583 74.1911 112.088 74.7991 111.384 75.0831L112.493 77.1417C112.551 77.247 112.493 77.3764 112.356 77.3764H111.504C111.432 77.3764 111.392 77.3364 111.376 77.303L110.296 75.1564H109.397V77.223C109.397 77.303 109.325 77.3764 109.244 77.3764H108.497C108.408 77.3764 108.344 77.303 108.344 77.223L108.344 71.8578ZM110.727 74.2884C111.157 74.2884 111.529 73.9164 111.529 73.4618C111.529 73.0324 111.157 72.6764 110.727 72.6764H109.405V74.2884H110.727Z" fill="#1D1D1B"></path>
    <path d="M115.435 77.1663L117.955 71.7104C117.981 71.6624 118.021 71.6211 118.094 71.6211H118.175C118.255 71.6211 118.289 71.6624 118.313 71.7104L120.809 77.1663C120.858 77.2717 120.793 77.377 120.671 77.377H119.966C119.845 77.377 119.787 77.3277 119.731 77.2144L119.334 76.3397H116.911L116.513 77.2144C116.481 77.2957 116.407 77.377 116.278 77.377H115.573C115.451 77.377 115.386 77.2717 115.435 77.1663ZM118.937 75.4397L118.126 73.6557H118.102L117.309 75.4397H118.937Z" fill="#1D1D1B"></path>
    <path d="M123.33 76.6605L123.751 76.2298C123.84 76.1498 123.922 76.1658 123.994 76.2392C124.1 76.3525 124.262 76.4991 124.529 76.4991C124.844 76.4991 125.177 76.2392 125.177 75.6792V71.8539C125.177 71.7726 125.241 71.6992 125.332 71.6992H126.093C126.183 71.6992 126.247 71.7726 126.247 71.8539V75.6792C126.247 76.8058 125.493 77.4551 124.546 77.4551C123.84 77.4551 123.451 77.0325 123.314 76.8631C123.274 76.7978 123.282 76.7178 123.33 76.6605Z" fill="#1D1D1B"></path>
    <path d="M132.505 71.6211C134.125 71.6211 135.422 72.9264 135.422 74.5477C135.422 76.169 134.125 77.457 132.505 77.457C130.883 77.457 129.595 76.169 129.595 74.5477C129.595 72.9264 130.883 71.6211 132.505 71.6211ZM132.505 76.4037C133.526 76.4037 134.369 75.5677 134.369 74.5477C134.369 73.5264 133.526 72.6744 132.505 72.6744C131.484 72.6744 130.649 73.5264 130.649 74.5477C130.649 75.5677 131.483 76.4037 132.505 76.4037Z" fill="#1D1D1B"></path>
    <path d="M138.373 71.8971C138.339 71.7838 138.405 71.7024 138.518 71.7024H139.263C139.328 71.7024 139.394 71.7584 139.41 71.8158L140.252 75.0504H140.284L141.574 71.7104C141.591 71.6624 141.631 71.6211 141.711 71.6211H141.858C141.939 71.6211 141.979 71.6624 141.996 71.7104L143.292 75.0504H143.324L144.151 71.8158C144.168 71.7584 144.232 71.7024 144.296 71.7024H145.043C145.156 71.7024 145.222 71.7838 145.19 71.8971L143.658 77.3437C143.64 77.4077 143.576 77.457 143.511 77.457H143.382C143.308 77.457 143.259 77.4157 143.244 77.3677L141.792 73.6957H141.752L140.318 77.3677C140.292 77.4157 140.26 77.457 140.179 77.457H140.05C139.984 77.457 139.92 77.4077 139.904 77.3437L138.373 71.8971Z" fill="#1D1D1B"></path>
    <path d="M147.613 77.1663L150.133 71.7104C150.157 71.6624 150.198 71.6211 150.271 71.6211H150.351C150.433 71.6211 150.465 71.6624 150.49 71.7104L152.986 77.1663C153.034 77.2717 152.97 77.377 152.849 77.377H152.143C152.022 77.377 151.965 77.3277 151.909 77.2144L151.511 76.3397H149.087L148.69 77.2144C148.658 77.2957 148.585 77.377 148.455 77.377H147.75C147.629 77.377 147.563 77.2717 147.613 77.1663ZM151.114 75.4397L150.303 73.6557H150.278L149.485 75.4397H151.114Z" fill="#1D1D1B"></path>
    <path d="M160.378 71.8578C160.378 71.7765 160.442 71.7031 160.531 71.7031H162.849C163.821 71.7031 164.616 72.4818 164.616 73.4458C164.616 74.1911 164.121 74.7991 163.417 75.0831L164.527 77.1417C164.584 77.247 164.527 77.3764 164.389 77.3764H163.537C163.465 77.3764 163.425 77.3364 163.41 77.303L162.329 75.1564H161.431V77.223C161.431 77.303 161.359 77.3764 161.277 77.3764H160.531C160.441 77.3764 160.377 77.303 160.377 77.223L160.378 71.8578ZM162.76 74.2884C163.191 74.2884 163.563 73.9164 163.563 73.4618C163.563 73.0324 163.191 72.6764 162.76 72.6764H161.439V74.2884H162.76Z" fill="#1D1D1B"></path>
    <path d="M167.469 77.1663L169.989 71.7104C170.014 71.6624 170.054 71.6211 170.127 71.6211H170.209C170.289 71.6211 170.322 71.6624 170.346 71.7104L172.842 77.1663C172.891 77.2717 172.826 77.377 172.705 77.377H171.999C171.878 77.377 171.821 77.3277 171.765 77.2144L171.367 76.3397H168.945L168.546 77.2144C168.514 77.2957 168.441 77.377 168.311 77.377H167.606C167.485 77.377 167.419 77.2717 167.469 77.1663ZM170.97 75.4397L170.159 73.6557H170.135L169.342 75.4397H170.97Z" fill="#1D1D1B"></path>
    <path d="M176.012 71.8578C176.012 71.7765 176.076 71.7031 176.157 71.7031H178.078C179.642 71.7031 180.923 72.9751 180.923 74.5324C180.923 76.1044 179.642 77.3764 178.078 77.3764H176.157C176.076 77.3764 176.012 77.3044 176.012 77.223V71.8578ZM177.981 76.3884C179.036 76.3884 179.805 75.5937 179.805 74.5324C179.805 73.4791 179.036 72.6844 177.981 72.6844H177.057V76.3884H177.981Z" fill="#1D1D1B"></path>
    <path d="M183.638 77.1663L186.158 71.7104C186.184 71.6624 186.224 71.6211 186.297 71.6211H186.378C186.458 71.6211 186.492 71.6624 186.516 71.7104L189.012 77.1663C189.061 77.2717 188.996 77.377 188.874 77.377H188.169C188.048 77.377 187.99 77.3277 187.934 77.2144L187.537 76.3397H185.114L184.716 77.2144C184.684 77.2957 184.61 77.377 184.481 77.377H183.776C183.654 77.377 183.589 77.2717 183.638 77.1663ZM187.14 75.4397L186.329 73.6557H186.305L185.512 75.4397H187.14Z" fill="#1D1D1B"></path>
    <path d="M103.132 81.3477C103.863 81.3477 104.558 81.6317 105.109 82.101C105.175 82.1663 105.183 82.2636 105.117 82.329L104.615 82.8556C104.551 82.921 104.478 82.921 104.405 82.8556C104.056 82.5476 103.627 82.385 103.18 82.385C102.168 82.385 101.365 83.253 101.365 84.2649C101.365 85.2716 102.168 86.1223 103.189 86.1223C103.643 86.1223 103.991 85.9836 104.153 85.9196V85.2303H103.505C103.416 85.2303 103.351 85.1663 103.351 85.0849V84.4436C103.351 84.3556 103.416 84.2903 103.505 84.2903H105.061C105.143 84.2903 105.207 84.3623 105.207 84.4436V86.5196C105.207 86.5849 105.175 86.6249 105.143 86.6489C105.143 86.6489 104.308 87.1756 103.132 87.1756C101.52 87.1756 100.223 85.8956 100.223 84.2743C100.223 82.653 101.52 81.3477 103.132 81.3477Z" fill="#1D1D1B"></path>
    <path d="M108.093 86.8929L110.612 81.437C110.636 81.389 110.678 81.3477 110.751 81.3477H110.831C110.912 81.3477 110.944 81.389 110.97 81.437L113.466 86.8929C113.514 86.9982 113.45 87.1036 113.328 87.1036H112.623C112.502 87.1036 112.444 87.0542 112.388 86.9409L111.991 86.0663H109.567L109.17 86.9409C109.138 87.0222 109.065 87.1036 108.935 87.1036H108.23C108.109 87.1036 108.043 86.9982 108.093 86.8929ZM111.594 85.1663L110.783 83.3836H110.758L109.965 85.1663H111.594Z" fill="#1D1D1B"></path>
    <path d="M116.303 86.3089L116.595 85.8063C116.66 85.6929 116.798 85.6929 116.87 85.7503C116.911 85.7743 117.567 86.2516 118.094 86.2516C118.515 86.2516 118.832 85.9769 118.832 85.6276C118.832 85.2143 118.483 84.9303 117.803 84.6556C117.04 84.3476 116.278 83.861 116.278 82.9036C116.278 82.1836 116.814 81.3477 118.102 81.3477C118.93 81.3477 119.562 81.769 119.723 81.8916C119.804 81.9396 119.828 82.0783 119.772 82.1596L119.463 82.621C119.399 82.7183 119.277 82.7836 119.18 82.7183C119.116 82.677 118.499 82.2716 118.053 82.2716C117.592 82.2716 117.34 82.5796 117.34 82.8396C117.34 83.221 117.64 83.4796 118.296 83.7476C119.083 84.0636 119.991 84.5343 119.991 85.5783C119.991 86.4143 119.269 87.1849 118.127 87.1849C117.105 87.1849 116.505 86.7062 116.343 86.5529C116.269 86.4796 116.23 86.4382 116.303 86.3089Z" fill="#1D1D1B"></path>
    <path d="M124.221 82.4017H122.981C122.892 82.4017 122.826 82.3283 122.826 82.2483V81.583C122.826 81.5017 122.892 81.4297 122.981 81.4297H126.523C126.611 81.4297 126.677 81.5017 126.677 81.583V82.2483C126.677 82.3283 126.611 82.4017 126.523 82.4017H125.283V86.9483C125.283 87.0296 125.21 87.1029 125.129 87.1029H124.374C124.294 87.1029 124.221 87.0296 124.221 86.9483L124.221 82.4017Z" fill="#1D1D1B"></path>
    <path d="M129.951 81.5844C129.951 81.503 130.015 81.4297 130.105 81.4297H132.423C133.395 81.4297 134.19 82.2083 134.19 83.1723C134.19 83.9177 133.695 84.5256 132.991 84.8096L134.101 86.8683C134.158 86.9736 134.101 87.1029 133.963 87.1029H133.111C133.039 87.1029 132.999 87.0629 132.983 87.0296L131.903 84.883H131.005V86.9496C131.005 87.0296 130.933 87.1029 130.851 87.1029H130.104C130.015 87.1029 129.951 87.0296 129.951 86.9496L129.951 81.5844ZM132.334 84.015C132.765 84.015 133.137 83.643 133.137 83.1883C133.137 82.759 132.765 82.403 132.334 82.403H131.013V84.015H132.334Z" fill="#1D1D1B"></path>
    <path d="M140.285 81.3477C141.906 81.3477 143.202 82.653 143.202 84.2743C143.202 85.8956 141.906 87.1836 140.285 87.1836C138.665 87.1836 137.376 85.8956 137.376 84.2743C137.376 82.653 138.665 81.3477 140.285 81.3477ZM140.285 86.1303C141.306 86.1303 142.15 85.2943 142.15 84.2743C142.15 83.253 141.306 82.401 140.285 82.401C139.264 82.401 138.429 83.253 138.429 84.2743C138.429 85.2943 139.264 86.1303 140.285 86.1303Z" fill="#1D1D1B"></path>
    <path d="M146.696 81.4943C146.696 81.413 146.768 81.3477 146.849 81.3477H147.053L150.425 84.9316H150.433V81.5837C150.433 81.5023 150.497 81.429 150.587 81.429H151.332C151.413 81.429 151.487 81.5023 151.487 81.5837V87.0382C151.487 87.1196 151.413 87.1849 151.332 87.1849H151.137L147.749 83.465H147.741V86.9502C147.741 87.0302 147.677 87.1036 147.587 87.1036H146.849C146.768 87.1036 146.696 87.0302 146.696 86.9502L146.696 81.4943Z" fill="#1D1D1B"></path>
    <path d="M157.897 81.3477C159.518 81.3477 160.814 82.653 160.814 84.2743C160.814 85.8956 159.518 87.1836 157.897 87.1836C156.277 87.1836 154.987 85.8956 154.987 84.2743C154.987 82.653 156.277 81.3477 157.897 81.3477ZM157.897 86.1303C158.918 86.1303 159.762 85.2943 159.762 84.2743C159.762 83.253 158.918 82.401 157.897 82.401C156.875 82.401 156.041 83.253 156.041 84.2743C156.041 85.2943 156.875 86.1303 157.897 86.1303Z" fill="#1D1D1B"></path>
    <path d="M164.899 81.469C164.907 81.4037 164.957 81.3477 165.046 81.3477H165.175C165.239 81.3477 165.289 81.3797 165.313 81.4277L167.097 85.2543H167.121L168.903 81.4277C168.929 81.3797 168.969 81.3477 169.042 81.3477H169.171C169.261 81.3477 169.309 81.4037 169.317 81.469L170.273 86.9156C170.298 87.0289 170.233 87.1022 170.127 87.1022H169.39C169.317 87.1022 169.253 87.0369 169.237 86.9809L168.758 83.909H168.733L167.315 87.0942C167.298 87.1422 167.25 87.1836 167.177 87.1836H167.031C166.958 87.1836 166.918 87.1422 166.893 87.0942L165.458 83.909H165.434L164.965 86.9809C164.957 87.0369 164.891 87.1022 164.818 87.1022H164.089C163.983 87.1022 163.918 87.0289 163.935 86.9156L164.899 81.469Z" fill="#1D1D1B"></path>
    <path d="M174.723 81.4297H173.968C173.884 81.4297 173.815 81.4983 173.815 81.583V86.9496C173.815 87.0343 173.884 87.1029 173.968 87.1029H174.723C174.808 87.1029 174.876 87.0343 174.876 86.9496V81.583C174.876 81.4983 174.808 81.4297 174.723 81.4297Z" fill="#1D1D1B"></path>
    <path d="M179.691 81.4297H178.937C178.852 81.4297 178.783 81.4983 178.783 81.583V86.9496C178.783 87.0343 178.852 87.1029 178.937 87.1029H179.691C179.776 87.1029 179.845 87.0343 179.845 86.9496V81.583C179.845 81.4983 179.776 81.4297 179.691 81.4297Z" fill="#1D1D1B"></path>
    <path d="M188.883 81.4297H188.128C188.043 81.4297 187.975 81.4983 187.975 81.583V86.9496C187.975 87.0343 188.043 87.1029 188.128 87.1029H188.883C188.967 87.1029 189.036 87.0343 189.036 86.9496V81.583C189.036 81.4983 188.967 81.4297 188.883 81.4297Z" fill="#1D1D1B"></path>
    <path d="M199.678 81.3477C200.495 81.3477 201.087 81.6063 201.639 82.101C201.713 82.1663 201.713 82.2636 201.647 82.329L201.153 82.8396C201.097 82.9036 201.015 82.9036 200.95 82.8396C200.609 82.5383 200.155 82.361 199.702 82.361C198.665 82.361 197.894 83.2276 197.894 84.2489C197.894 85.2636 198.673 86.1223 199.71 86.1223C200.197 86.1223 200.609 85.9356 200.95 85.6596C201.015 85.6036 201.105 85.6116 201.153 85.6596L201.655 86.1782C201.721 86.2356 201.703 86.3409 201.647 86.3982C201.097 86.9329 200.399 87.1836 199.678 87.1836C198.057 87.1836 196.751 85.8956 196.751 84.2743C196.751 82.653 198.057 81.3477 199.678 81.3477Z" fill="#1D1D1B"></path>
    <path d="M204.403 86.8929L206.923 81.437C206.947 81.389 206.988 81.3477 207.062 81.3477H207.142C207.223 81.3477 207.255 81.389 207.28 81.437L209.776 86.8929C209.824 86.9982 209.76 87.1036 209.639 87.1036H208.934C208.812 87.1036 208.755 87.0542 208.699 86.9409L208.302 86.0663H205.878L205.48 86.9409C205.448 87.0222 205.375 87.1036 205.246 87.1036H204.54C204.419 87.1036 204.354 86.9982 204.403 86.8929ZM207.904 85.1663L207.094 83.3836H207.068L206.275 85.1663H207.904Z" fill="#1D1D1B"></path>
    <path d="M213.407 82.4017H212.167C212.078 82.4017 212.013 82.3283 212.013 82.2483V81.583C212.013 81.5017 212.078 81.4297 212.167 81.4297H215.71C215.798 81.4297 215.863 81.5017 215.863 81.583V82.2483C215.863 82.3283 215.798 82.4017 215.71 82.4017H214.47V86.9483C214.47 87.0296 214.396 87.1029 214.315 87.1029H213.561C213.481 87.1029 213.407 87.0296 213.407 86.9483L213.407 82.4017Z" fill="#1D1D1B"></path>
    <path d="M219.138 81.583C219.138 81.5017 219.202 81.4297 219.291 81.4297H222.59C222.679 81.4297 222.744 81.5017 222.744 81.583V82.2483C222.744 82.3283 222.679 82.4017 222.59 82.4017H220.191V83.731H222.192C222.274 83.731 222.347 83.8043 222.347 83.8857V84.5576C222.347 84.647 222.274 84.711 222.192 84.711H220.191V86.1309H222.59C222.679 86.1309 222.744 86.203 222.744 86.2843V86.9483C222.744 87.0296 222.679 87.1029 222.59 87.1029H219.291C219.202 87.1029 219.138 87.0296 219.138 86.9483V81.583Z" fill="#1D1D1B"></path>
    <path d="M226.335 81.5844C226.335 81.503 226.399 81.4297 226.488 81.4297H228.807C229.779 81.4297 230.574 82.2083 230.574 83.1723C230.574 83.9177 230.079 84.5256 229.375 84.8096L230.484 86.8683C230.542 86.9736 230.484 87.1029 230.347 87.1029H229.495C229.423 87.1029 229.383 87.0629 229.367 87.0296L228.287 84.883H227.388V86.9496C227.388 87.0296 227.316 87.1029 227.235 87.1029H226.488C226.399 87.1029 226.335 87.0296 226.335 86.9496L226.335 81.5844ZM228.718 84.015C229.148 84.015 229.52 83.643 229.52 83.1883C229.52 82.759 229.148 82.403 228.718 82.403H227.396V84.015H228.718Z" fill="#1D1D1B"></path>
    <path d="M235.072 81.4297H234.318C234.233 81.4297 234.164 81.4983 234.164 81.583V86.9496C234.164 87.0343 234.233 87.1029 234.318 87.1029H235.072C235.157 87.1029 235.225 87.0343 235.225 86.9496V81.583C235.225 81.4983 235.157 81.4297 235.072 81.4297Z" fill="#1D1D1B"></path>
    <path d="M239.132 81.4943C239.132 81.413 239.204 81.3477 239.286 81.3477H239.49L242.862 84.9316H242.87V81.5837C242.87 81.5023 242.934 81.429 243.023 81.429H243.768C243.85 81.429 243.923 81.5023 243.923 81.5837V87.0382C243.923 87.1196 243.85 87.1849 243.768 87.1849H243.574L240.186 83.465H240.178V86.9502C240.178 87.0302 240.114 87.1036 240.023 87.1036H239.286C239.205 87.1036 239.133 87.0302 239.133 86.9502L239.132 81.4943Z" fill="#1D1D1B"></path>
    <path d="M250.333 81.3477C251.064 81.3477 251.76 81.6317 252.31 82.101C252.376 82.1663 252.384 82.2636 252.318 82.329L251.816 82.8556C251.752 82.921 251.68 82.921 251.606 82.8556C251.257 82.5476 250.828 82.385 250.381 82.385C249.369 82.385 248.567 83.253 248.567 84.2649C248.567 85.2716 249.369 86.1223 250.39 86.1223C250.844 86.1223 251.192 85.9836 251.354 85.9196V85.2303H250.706C250.617 85.2303 250.552 85.1663 250.552 85.0849V84.4436C250.552 84.3556 250.617 84.2903 250.706 84.2903H252.262C252.344 84.2903 252.408 84.3623 252.408 84.4436V86.5196C252.408 86.5849 252.376 86.6249 252.344 86.6489C252.344 86.6489 251.509 87.1756 250.333 87.1756C248.721 87.1756 247.424 85.8956 247.424 84.2743C247.424 82.653 248.721 81.3477 250.333 81.3477Z" fill="#1D1D1B"></path>
    <path d="M255.95 81.583C255.95 81.5017 256.022 81.4297 256.103 81.4297H256.874C256.963 81.4297 257.027 81.5017 257.027 81.583V84.8976C257.027 85.587 257.497 86.1309 258.203 86.1309C258.909 86.1309 259.387 85.587 259.387 84.907V81.583C259.387 81.5017 259.451 81.4297 259.541 81.4297H260.312C260.392 81.4297 260.465 81.5017 260.465 81.583V84.955C260.465 86.187 259.484 87.1843 258.204 87.1843C256.932 87.1843 255.95 86.187 255.95 84.955L255.95 81.583Z" fill="#1D1D1B"></path>
    <g clip-path="url(#clip1_1821_747)">
      <path d="M3.74778 43.9191C3.769 44.607 3.80506 45.2909 3.86525 45.9682C3.90476 46.3925 3.95899 46.8124 4.01282 47.2323C4.04941 47.5228 4.09303 47.8108 4.13679 48.0991C6.89362 43.0935 10.8489 38.8518 15.6143 35.7517C16.3228 34.1401 17.1485 32.5919 18.0803 31.118C22.1183 24.7314 28.1502 19.7424 35.3086 17.0547C21.8288 17.6192 10.189 25.4674 4.23848 36.7913C3.89376 38.756 3.70416 40.774 3.70416 42.8374C3.70416 43.2019 3.73585 43.5578 3.74778 43.9191Z" fill="url(#paint0_linear_1821_747)"></path>
      <path d="M35.3099 17.0532C28.1504 19.7408 22.1183 24.73 18.0805 31.1166C17.1487 32.5904 16.3229 34.1387 15.6144 35.7503C21.0159 32.2361 27.4476 30.1888 34.3617 30.1888C35.6041 30.1888 36.8318 30.258 38.0411 30.3871H54.6671C59.9506 30.3871 64.5037 27.2923 66.6594 22.817C66.9339 22.25 67.154 21.6588 67.3489 21.0533C67.7586 19.7727 67.9999 18.4163 67.9999 17.0013V17H36.8517C36.3346 17 35.8243 17.0333 35.3099 17.0532Z" fill="url(#paint1_linear_1821_747)"></path>
      <path d="M15.6144 35.7501C10.849 38.8502 6.89374 43.092 4.1369 48.0975C4.16859 48.3064 4.19126 48.5182 4.22666 48.726C4.28314 49.0583 4.34188 49.3899 4.40777 49.7191C4.53532 50.3566 4.6813 50.9874 4.84318 51.6118C4.92658 51.9333 5.01382 52.2526 5.10583 52.5702C5.28668 53.1937 5.48304 53.8106 5.69743 54.4191C5.80668 54.7296 5.92255 55.0371 6.04016 55.3435C6.24261 55.8701 6.45899 56.3894 6.68598 56.9033C6.79695 57.1549 6.9001 57.4108 7.01678 57.6591C7.344 58.3548 7.69681 59.0355 8.06751 59.705C8.21694 59.9746 8.37564 60.2381 8.53196 60.5034C8.80773 60.9718 9.09452 61.433 9.39137 61.8871C9.55684 62.1399 9.71899 62.3952 9.89055 62.6433C10.3242 63.2701 10.7756 63.8838 11.2485 64.4797C11.4201 64.6959 11.6026 64.9027 11.779 65.1148C12.1326 65.5393 12.4947 65.9562 12.8677 66.3633C13.0828 66.5978 13.2986 66.8317 13.5198 67.0602C13.9767 67.532 14.4466 67.9907 14.9293 68.436C15.1641 68.6525 15.404 68.8632 15.6449 69.0734C16.0949 69.4662 16.5537 69.8488 17.0238 70.2182C17.2869 70.4249 17.5541 70.6267 17.8232 70.826C18.2522 71.1433 18.6899 71.4482 19.1336 71.7458C19.3763 71.9087 19.6133 72.0792 19.8604 72.2361C20.4805 72.6298 21.1173 72.9987 21.7633 73.3531C22.1246 73.5515 22.4949 73.7346 22.8639 73.9205C23.2759 74.1277 23.6903 74.3304 24.1113 74.5215C24.4657 74.6825 24.8233 74.8381 25.1841 74.9875C25.6724 75.1893 26.1677 75.3764 26.6671 75.5561C26.976 75.6676 27.2821 75.7846 27.5949 75.8873C28.3908 76.1481 29.1965 76.3873 30.0168 76.5906C30.0419 76.5968 30.066 76.6055 30.0913 76.6116C24.0017 74.772 18.957 70.5137 16.0414 64.9589C15.1742 63.3083 14.502 61.5432 14.0432 59.6916C13.1364 56.5728 12.6405 53.2769 12.6405 49.8639C12.6405 44.8376 13.7156 40.071 15.6144 35.7501Z" fill="url(#paint2_linear_1821_747)"></path>
      <path d="M34.3618 30.1875C27.4477 30.1875 21.0159 32.2348 15.6144 35.7489C13.7156 40.0698 12.6405 44.8365 12.6405 49.8629C12.6405 53.2759 13.1364 56.5718 14.0433 59.6906C13.5209 57.5834 13.2651 55.3724 13.35 53.0842C13.8326 40.3081 24.6951 30.3858 37.4326 30.3858H38.0412C36.8319 30.2567 35.6041 30.1875 34.3618 30.1875Z" fill="url(#paint3_linear_1821_747)"></path>
      <path d="M39.0224 47.9062H33.0706C33.0706 55.2993 39.0396 61.2934 46.4046 61.2934H55.3476C48.5261 58.7842 42.7891 54.02 39.0224 47.9062Z" fill="url(#paint4_linear_1821_747)"></path>
      <path d="M54.6673 47.9062H39.0224C42.789 54.0201 48.5261 58.7842 55.3475 61.2934H68.0001C68.0001 61.1428 67.983 61.0005 67.9775 60.8515C67.7441 53.6647 61.8825 47.9062 54.6673 47.9062Z" fill="url(#paint5_linear_1821_747)"></path>
      <path d="M19.9601 80.39C15.3898 79.4798 11.0768 77.8493 7.13943 75.625C14.0141 84.9629 25.1643 91.0002 37.5425 91.0002H67.9999V90.9949C67.9985 87.4887 66.6422 84.3073 64.4439 81.9206C62.007 79.2769 58.5346 77.613 54.6671 77.613H45.7654C40.4567 79.9305 34.6004 81.2231 28.4405 81.2231C25.5378 81.2231 22.7025 80.9362 19.9601 80.39Z" fill="url(#paint6_linear_1821_747)"></path>
      <path d="M26.667 75.5556C26.1679 75.3755 25.6721 75.1891 25.1841 74.9869C24.8228 74.8377 24.4663 74.6818 24.1113 74.5209C23.6903 74.3294 23.2758 74.1276 22.8638 73.9199C22.4945 73.7342 22.1248 73.5509 21.7633 73.3526C21.6982 73.3168 21.6296 73.2864 21.5648 73.2502C20.9861 72.928 20.4179 72.5893 19.8604 72.2355C19.6133 72.0786 19.3763 71.9083 19.1336 71.7453C18.6898 71.4477 18.2522 71.1426 17.8232 70.8254C17.554 70.626 17.2871 70.4246 17.0238 70.2176C16.5536 69.8483 16.0949 69.4657 15.6449 69.0729C15.4041 68.8626 15.1644 68.6521 14.9293 68.4354C14.4466 67.9901 13.9768 67.5314 13.5198 67.0597C13.2984 66.831 13.0828 66.5975 12.8677 66.3627C12.4947 65.9556 12.1328 65.5389 11.779 65.1142C11.6022 64.9021 11.4199 64.6956 11.2485 64.4792C10.7756 63.8831 10.3244 63.2697 9.89055 62.6427C9.71885 62.3943 9.55684 62.1394 9.39137 61.8865C9.09438 61.4325 8.80786 60.9714 8.53196 60.5028C8.37564 60.2375 8.21707 59.9742 8.06751 59.7044C7.69694 59.035 7.34386 58.3544 7.01678 57.6586C6.89997 57.4101 6.79695 57.1545 6.68598 56.9028C6.45912 56.3888 6.24288 55.8697 6.04015 55.343C5.92229 55.0364 5.80681 54.7293 5.69742 54.4185C5.48317 53.8098 5.28668 53.1933 5.10583 52.5697C5.01368 52.2518 4.92671 51.9328 4.84318 51.6113C4.68156 50.9869 4.53532 50.3563 4.40777 49.7186C4.34174 49.3892 4.28314 49.0581 4.22666 48.7254C4.19272 48.5257 4.14843 48.3298 4.11794 48.1291C4.0726 47.8326 4.05138 47.5289 4.01293 47.2302C3.96016 46.8097 3.90315 46.3913 3.86537 45.9661C3.80252 45.2895 3.7707 44.6046 3.7479 43.917C3.74233 43.7313 3.71912 43.5501 3.71621 43.3636C3.71356 43.1893 3.70441 43.0122 3.70441 42.8352C3.70441 40.7719 3.89387 38.7539 4.23872 36.7891C1.40525 42.1788 -0.143339 48.35 0.0104597 54.8924C0.13509 60.1903 1.40141 65.186 3.55034 69.6839C4.55414 71.7857 5.76995 73.7638 7.13822 75.6234C7.13875 75.6236 7.13915 75.6239 7.13955 75.624C11.0767 77.8487 15.3895 79.4788 19.9602 80.3892C22.7028 80.9353 25.538 81.2221 28.4406 81.2221C34.6005 81.2221 40.4568 79.9297 45.7655 77.6121H36.8518C34.5037 77.6121 32.2351 77.258 30.094 76.6124C30.0679 76.606 30.0432 76.5964 30.0169 76.59C29.1966 76.3865 28.3907 76.1481 27.595 75.8868C27.2817 75.7842 26.9761 75.6668 26.667 75.5556Z" fill="url(#paint7_linear_1821_747)"></path>
      <path d="M4.11795 48.1294C4.12391 48.1185 4.13094 48.1082 4.13691 48.0973C4.09315 47.809 4.04953 47.5211 4.01294 47.2305C4.05152 47.5292 4.0726 47.8329 4.11795 48.1294Z" fill="url(#paint8_linear_1821_747)"></path>
      <path d="M4.11795 48.1294C4.12391 48.1185 4.13094 48.1082 4.13691 48.0973C4.09315 47.809 4.04953 47.5211 4.01294 47.2305C4.05152 47.5292 4.0726 47.8329 4.11795 48.1294Z" fill="url(#paint9_linear_1821_747)"></path>
      <path d="M3.86539 45.9671C3.8052 45.2898 3.76914 44.6059 3.74792 43.918C3.77073 44.6058 3.80268 45.2905 3.86539 45.9671Z" fill="url(#paint10_linear_1821_747)"></path>
      <path d="M3.86539 45.9671C3.8052 45.2898 3.76914 44.6059 3.74792 43.918C3.77073 44.6058 3.80268 45.2905 3.86539 45.9671Z" fill="url(#paint11_linear_1821_747)"></path>
      <path d="M21.7633 73.3515C21.1173 72.997 20.4805 72.6281 19.8604 72.2344C20.4179 72.5882 20.9861 72.927 21.5648 73.2491C21.6295 73.2853 21.6982 73.3156 21.7633 73.3515Z" fill="url(#paint12_linear_1821_747)"></path>
      <path d="M21.7633 73.3515C21.1173 72.997 20.4805 72.6281 19.8604 72.2344C20.4179 72.5882 20.9861 72.927 21.5648 73.2491C21.6295 73.2853 21.6982 73.3156 21.7633 73.3515Z" fill="url(#paint13_linear_1821_747)"></path>
      <path d="M4.22667 48.7261C4.19127 48.5183 4.1686 48.3065 4.13691 48.0977C4.13094 48.1086 4.12392 48.1188 4.11795 48.1297C4.14858 48.3305 4.19273 48.5264 4.22667 48.7261Z" fill="url(#paint14_linear_1821_747)"></path>
      <path d="M4.22667 48.7261C4.19127 48.5183 4.1686 48.3065 4.13691 48.0977C4.13094 48.1086 4.12392 48.1188 4.11795 48.1297C4.14858 48.3305 4.19273 48.5264 4.22667 48.7261Z" fill="url(#paint15_linear_1821_747)"></path>
    </g>
  </g>
  <defs>
    <linearGradient id="paint0_linear_1821_747" x1="-3.88781" y1="31.1381" x2="38.6783" y2="33.6922" gradientUnits="userSpaceOnUse">
      <stop stop-color="#700758"></stop>
      <stop offset="0.0622" stop-color="#880B5B"></stop>
      <stop offset="0.1578" stop-color="#A61260"></stop>
      <stop offset="0.2633" stop-color="#BF1764"></stop>
      <stop offset="0.3805" stop-color="#D31B68"></stop>
      <stop offset="0.5159" stop-color="#E01D6A"></stop>
      <stop offset="0.6858" stop-color="#E81F6B"></stop>
      <stop offset="1" stop-color="#EB206C"></stop>
    </linearGradient>
    <linearGradient id="paint1_linear_1821_747" x1="21.2643" y1="22.4867" x2="84.8729" y2="34.5788" gradientUnits="userSpaceOnUse">
      <stop stop-color="#F84836"></stop>
      <stop offset="1" stop-color="#F2E355"></stop>
    </linearGradient>
    <linearGradient id="paint2_linear_1821_747" x1="-4.22693" y1="62.0429" x2="29.2896" y2="54.8892" gradientUnits="userSpaceOnUse">
      <stop stop-color="#700758"></stop>
      <stop offset="0.0622" stop-color="#880B5B"></stop>
      <stop offset="0.1578" stop-color="#A61260"></stop>
      <stop offset="0.2633" stop-color="#BF1764"></stop>
      <stop offset="0.3805" stop-color="#D31B68"></stop>
      <stop offset="0.5159" stop-color="#E01D6A"></stop>
      <stop offset="0.6858" stop-color="#E81F6B"></stop>
      <stop offset="1" stop-color="#EB206C"></stop>
    </linearGradient>
    <linearGradient id="paint3_linear_1821_747" x1="16.0528" y1="44.8488" x2="53.4894" y2="45.3596" gradientUnits="userSpaceOnUse">
      <stop stop-color="#F5441F"></stop>
      <stop offset="0.1549" stop-color="#F4612C"></stop>
      <stop offset="0.561" stop-color="#F1A84E"></stop>
      <stop offset="0.8531" stop-color="#F0D562"></stop>
      <stop offset="1" stop-color="#F0E76B"></stop>
    </linearGradient>
    <linearGradient id="paint4_linear_1821_747" x1="5.18034" y1="38.4916" x2="58.0706" y2="61.8484" gradientUnits="userSpaceOnUse">
      <stop stop-color="#700758"></stop>
      <stop offset="0.0622" stop-color="#880B5B"></stop>
      <stop offset="0.1578" stop-color="#A61260"></stop>
      <stop offset="0.2633" stop-color="#BF1764"></stop>
      <stop offset="0.3805" stop-color="#D31B68"></stop>
      <stop offset="0.5159" stop-color="#E01D6A"></stop>
      <stop offset="0.6858" stop-color="#E81F6B"></stop>
      <stop offset="1" stop-color="#EB206C"></stop>
    </linearGradient>
    <linearGradient id="paint5_linear_1821_747" x1="39.9784" y1="55.1292" x2="79.9798" y2="53.4266" gradientUnits="userSpaceOnUse">
      <stop stop-color="#EF4118"></stop>
      <stop offset="0.5933" stop-color="#FF8B00"></stop>
      <stop offset="0.9959" stop-color="#F2E355"></stop>
      <stop offset="1" stop-color="#F2E355"></stop>
    </linearGradient>
    <linearGradient id="paint6_linear_1821_747" x1="9.20864" y1="78.9939" x2="85.8042" y2="90.2333" gradientUnits="userSpaceOnUse">
      <stop stop-color="#EB206C"></stop>
      <stop offset="0.6934" stop-color="#EF4118"></stop>
      <stop offset="1" stop-color="#F2E355"></stop>
    </linearGradient>
    <linearGradient id="paint7_linear_1821_747" x1="-13.5022" y1="50.7398" x2="71.6859" y2="76.8083" gradientUnits="userSpaceOnUse">
      <stop stop-color="#700758"></stop>
      <stop offset="0.0622" stop-color="#880B5B"></stop>
      <stop offset="0.1578" stop-color="#A61260"></stop>
      <stop offset="0.2633" stop-color="#BF1764"></stop>
      <stop offset="0.3805" stop-color="#D31B68"></stop>
      <stop offset="0.5159" stop-color="#E01D6A"></stop>
      <stop offset="0.6858" stop-color="#E81F6B"></stop>
      <stop offset="1" stop-color="#EB206C"></stop>
    </linearGradient>
    <linearGradient id="paint8_linear_1821_747" x1="45560" y1="2802.94" x2="45602.5" y2="2805.5" gradientUnits="userSpaceOnUse">
      <stop stop-color="#700758"></stop>
      <stop offset="0.0622" stop-color="#880B5B"></stop>
      <stop offset="0.1578" stop-color="#A61260"></stop>
      <stop offset="0.2633" stop-color="#BF1764"></stop>
      <stop offset="0.3805" stop-color="#D31B68"></stop>
      <stop offset="0.5159" stop-color="#E01D6A"></stop>
      <stop offset="0.6858" stop-color="#E81F6B"></stop>
      <stop offset="1" stop-color="#EB206C"></stop>
    </linearGradient>
    <linearGradient id="paint9_linear_1821_747" x1="-11.1116" y1="42.9284" x2="74.0763" y2="68.9968" gradientUnits="userSpaceOnUse">
      <stop stop-color="#700758"></stop>
      <stop offset="0.0622" stop-color="#880B5B"></stop>
      <stop offset="0.1578" stop-color="#A61260"></stop>
      <stop offset="0.2633" stop-color="#BF1764"></stop>
      <stop offset="0.3805" stop-color="#D31B68"></stop>
      <stop offset="0.5159" stop-color="#E01D6A"></stop>
      <stop offset="0.6858" stop-color="#E81F6B"></stop>
      <stop offset="1" stop-color="#EB206C"></stop>
    </linearGradient>
    <linearGradient id="paint10_linear_1821_747" x1="45560.1" y1="2800.23" x2="45602.7" y2="2802.78" gradientUnits="userSpaceOnUse">
      <stop stop-color="#700758"></stop>
      <stop offset="0.0622" stop-color="#880B5B"></stop>
      <stop offset="0.1578" stop-color="#A61260"></stop>
      <stop offset="0.2633" stop-color="#BF1764"></stop>
      <stop offset="0.3805" stop-color="#D31B68"></stop>
      <stop offset="0.5159" stop-color="#E01D6A"></stop>
      <stop offset="0.6858" stop-color="#E81F6B"></stop>
      <stop offset="1" stop-color="#EB206C"></stop>
    </linearGradient>
    <linearGradient id="paint11_linear_1821_747" x1="-10.3688" y1="40.5016" x2="74.8191" y2="66.5701" gradientUnits="userSpaceOnUse">
      <stop stop-color="#700758"></stop>
      <stop offset="0.0622" stop-color="#880B5B"></stop>
      <stop offset="0.1578" stop-color="#A61260"></stop>
      <stop offset="0.2633" stop-color="#BF1764"></stop>
      <stop offset="0.3805" stop-color="#D31B68"></stop>
      <stop offset="0.5159" stop-color="#E01D6A"></stop>
      <stop offset="0.6858" stop-color="#E81F6B"></stop>
      <stop offset="1" stop-color="#EB206C"></stop>
    </linearGradient>
    <linearGradient id="paint12_linear_1821_747" x1="-0.925735" y1="77.5082" x2="32.5908" y2="70.3545" gradientUnits="userSpaceOnUse">
      <stop stop-color="#700758"></stop>
      <stop offset="0.0622" stop-color="#880B5B"></stop>
      <stop offset="0.1578" stop-color="#A61260"></stop>
      <stop offset="0.2633" stop-color="#BF1764"></stop>
      <stop offset="0.3805" stop-color="#D31B68"></stop>
      <stop offset="0.5159" stop-color="#E01D6A"></stop>
      <stop offset="0.6858" stop-color="#E81F6B"></stop>
      <stop offset="1" stop-color="#EB206C"></stop>
    </linearGradient>
    <linearGradient id="paint13_linear_1821_747" x1="-16.6904" y1="61.1575" x2="68.4976" y2="87.226" gradientUnits="userSpaceOnUse">
      <stop stop-color="#700758"></stop>
      <stop offset="0.0622" stop-color="#880B5B"></stop>
      <stop offset="0.1578" stop-color="#A61260"></stop>
      <stop offset="0.2633" stop-color="#BF1764"></stop>
      <stop offset="0.3805" stop-color="#D31B68"></stop>
      <stop offset="0.5159" stop-color="#E01D6A"></stop>
      <stop offset="0.6858" stop-color="#E81F6B"></stop>
      <stop offset="1" stop-color="#EB206C"></stop>
    </linearGradient>
    <linearGradient id="paint14_linear_1821_747" x1="-6.6321" y1="50.7743" x2="26.8844" y2="43.6206" gradientUnits="userSpaceOnUse">
      <stop stop-color="#700758"></stop>
      <stop offset="0.0622" stop-color="#880B5B"></stop>
      <stop offset="0.1578" stop-color="#A61260"></stop>
      <stop offset="0.2633" stop-color="#BF1764"></stop>
      <stop offset="0.3805" stop-color="#D31B68"></stop>
      <stop offset="0.5159" stop-color="#E01D6A"></stop>
      <stop offset="0.6858" stop-color="#E81F6B"></stop>
      <stop offset="1" stop-color="#EB206C"></stop>
    </linearGradient>
    <linearGradient id="paint15_linear_1821_747" x1="-11.3052" y1="43.5612" x2="73.8828" y2="69.6298" gradientUnits="userSpaceOnUse">
      <stop stop-color="#700758"></stop>
      <stop offset="0.0622" stop-color="#880B5B"></stop>
      <stop offset="0.1578" stop-color="#A61260"></stop>
      <stop offset="0.2633" stop-color="#BF1764"></stop>
      <stop offset="0.3805" stop-color="#D31B68"></stop>
      <stop offset="0.5159" stop-color="#E01D6A"></stop>
      <stop offset="0.6858" stop-color="#E81F6B"></stop>
      <stop offset="1" stop-color="#EB206C"></stop>
    </linearGradient>
    <clipPath id="clip0_1821_747">
      <rect width="273.838" height="90.308" fill="white"></rect>
    </clipPath>
    <clipPath id="clip1_1821_747">
      <rect width="68" height="74" fill="white" transform="translate(0 17)"></rect>
    </clipPath>
  </defs>
</svg>
